<svg version="1.1" xmlns="http://www.w3.org/2000/svg" xmlns:xlink="http://www.w3.org/1999/xlink" width="394.96002197265625" height="53.83000183105469"><defs></defs><g transform="translate(-198.09046936035156,23.4559326171875)"><rect fill="rgb(255,255,255)" stroke="none" x="0" y="0" width="394.96002197265625" height="53.83000183105469" fill-opacity="0" transform="translate(198.09046936035156,-23.4559326171875)"></rect><g transform="translate(197.48046875,26.9140625) rotate(0,0,0) translate(-197.48046875,-26.9140625) matrix(1,0,0,1,197.48046875,26.9140625)"><path fill="rgb(255,255,255)" fill-opacity="1" d="M60.14-7.13L60.14-7.13Q60.06-6.35 59.59-5.90Q59.12-5.45 58.38-5.45L58.38-5.45Q57.99-5.45 57.64-5.57L57.64-5.57Q56.89-4.98 55.88-4.67Q54.86-4.36 53.96-4.04L53.96-4.04Q52.87-4.08 51.82-4.24Q50.76-4.39 49.63-4.32L49.63-4.32Q49.24-4.59 48.81-4.67Q48.38-4.75 47.93-4.77Q47.48-4.79 47.07-4.90Q46.66-5.02 46.27-5.45L46.27-5.45L44.32-5.45Q44.04-5.45 43.52-5.70Q42.99-5.96 42.34-6.23Q41.70-6.50 40.98-6.74Q40.25-6.97 39.63-6.97L39.63-6.97L39.39-6.97Q38.96-7.32 38.40-7.50Q37.83-7.68 37.25-7.81Q36.66-7.95 36.11-8.11Q35.57-8.26 35.18-8.54L35.18-8.54Q34.79-8.81 34.28-9.10Q33.77-9.39 33.22-9.36L33.22-9.36Q32.48-9.79 31.68-10.10Q30.88-10.41 30.06-10.68L30.06-10.68L28.46-11.27Q27.68-11.58 26.89-12.01L26.89-12.01Q26.78-11.97 26.62-12.01Q26.46-12.05 26.35-12.05L26.35-12.05Q26.11-12.05 26.07-11.89L26.07-11.89Q25.80-12.17 25.47-12.36Q25.14-12.56 24.82-12.83L24.82-12.83Q24.67-12.79 24.53-12.77Q24.39-12.75 24.20-12.75L24.20-12.75Q23.85-12.75 23.52-12.83Q23.18-12.91 22.87-13.03L22.87-13.03Q22.52-12.25 22.40-11.27Q22.29-10.29 22.23-9.26Q22.17-8.22 22.09-7.19Q22.01-6.15 21.74-5.29L21.74-5.29Q21.82-4.98 21.82-4.67L21.82-4.67L21.82-4.00Q21.82-3.34 22.01-2.95L22.01-2.95Q21.93-2.60 21.88-2.29Q21.82-1.97 21.74-1.66L21.74-1.66Q21.78-1.23 21.80-0.86Q21.82-0.49 21.82-0.06L21.82-0.06L21.82 0.61Q21.82 0.96 21.74 1.31L21.74 1.31Q21.35 1.54 20.96 1.76Q20.57 1.97 20.18 2.29L20.18 2.29Q19.90 1.78 19.24 1.70L19.24 1.70Q19.08 1.89 19.02 2.23Q18.96 2.56 18.65 2.56L18.65 2.56Q18.11 2.13 17.75 1.86Q17.40 1.58 16.97 1.04L16.97 1.04Q16.93 0.96 16.93 0.84L16.93 0.84Q16.93 0.64 17.01 0.49Q17.09 0.33 17.09 0.18L17.09 0.18Q17.09-0.29 16.97-0.64L16.97-0.64Q16.89-1.15 16.86-1.64Q16.82-2.13 16.82-2.60L16.82-2.60Q16.82-3.26 16.91-3.89Q17.01-4.51 17.29-5.18L17.29-5.18Q17.71-6.31 17.89-7.56Q18.07-8.81 18.14-10.08Q18.22-11.35 18.24-12.64Q18.26-13.93 18.38-15.10L18.38-15.10Q18.11-15.72 17.73-16.09Q17.36-16.46 17.36-17.29L17.36-17.29Q17.36-18.03 17.83-18.44Q18.30-18.85 18.65-19.43L18.65-19.43Q18.57-19.67 18.77-19.75L18.77-19.75L19.24-23.85Q19.28-24.28 19.38-24.79Q19.47-25.29 19.51-25.72L19.51-25.72Q19.59-26.62 19.59-27.48Q19.59-28.34 19.67-29.20L19.67-29.20Q19.86-31.11 20.04-32.99Q20.21-34.86 20.21-36.74L20.21-36.74Q20.21-37.64 20.16-38.54Q20.10-39.43 19.90-40.33L19.90-40.33Q19.24-40.14 18.44-39.92Q17.64-39.71 17.09-39.20L17.09-39.20L16.78-39.20Q15.76-39.20 14.88-38.81Q14.00-38.42 13.11-38.07L13.11-38.07Q12.71-37.87 12.32-37.81Q11.93-37.75 11.50-37.64L11.50-37.64Q11.31-37.60 11.07-37.40Q10.84-37.21 10.64-37.13L10.64-37.13L9.98-36.97Q9.71-36.89 9.75-36.62Q9.79-36.35 9.55-36.27L9.55-36.27Q9.36-36.07 9.00-36.09Q8.65-36.11 8.46-36.11L8.46-36.11L8.30-36.11Q7.32-35.41 6.41-34.92Q5.49-34.43 4.24-34.28L4.24-34.28L3.38-33.73Q2.95-33.46 2.40-33.46L2.40-33.46Q1.97-33.46 1.70-33.61L1.70-33.61Q1.39-34.08 1.21-34.67Q1.04-35.25 0.61-35.68L0.61-35.68Q0.80-35.88 0.86-36.21Q0.92-36.54 1.00-36.82L1.00-36.82Q2.17-37.32 3.36-37.79Q4.55-38.26 5.64-38.93L5.64-38.93Q5.76-38.89 6.00-38.89L6.00-38.89Q6.39-38.89 6.70-39.00Q7.01-39.12 7.32-39.28Q7.64-39.43 7.95-39.55Q8.26-39.67 8.69-39.63L8.69-39.63Q10.02-40.37 11.50-40.84Q12.99-41.31 14.32-42.13L14.32-42.13Q14.51-42.13 14.65-42.05Q14.79-41.97 14.94-41.97L14.94-41.97Q15.10-41.97 15.14-42.01L15.14-42.01Q15.37-42.32 15.76-42.46Q16.15-42.60 16.56-42.70Q16.97-42.79 17.34-42.97Q17.71-43.14 17.83-43.54L17.83-43.54Q18.03-43.38 18.42-43.38L18.42-43.38Q19.08-43.38 19.65-43.65Q20.21-43.93 20.88-43.93L20.88-43.93Q21.04-43.93 21.17-43.87Q21.31-43.81 21.46-43.81L21.46-43.81Q21.78-43.81 21.80-44.00Q21.82-44.20 22.01-44.36L22.01-44.36Q24.39-44.79 26.76-45.14Q29.12-45.49 31.54-45.49L31.54-45.49Q31.89-45.72 32.32-45.72L32.32-45.72Q32.75-45.72 33.11-45.49L33.11-45.49Q33.77-45.57 34.43-45.61Q35.10-45.64 35.76-45.64L35.76-45.64Q37.29-45.64 38.89-45.45Q40.49-45.25 42.07-44.84Q43.65-44.43 45.10-43.75Q46.54-43.07 47.79-42.13L47.79-42.13Q47.91-41.78 48.11-41.43Q48.30-41.07 48.61-40.88L48.61-40.88Q48.61-40.80 48.59-40.76Q48.57-40.72 48.57-40.64L48.57-40.64Q48.57-40.21 48.83-39.82Q49.08-39.43 49.08-38.89L49.08-38.89Q49.08-38.34 48.91-37.79Q48.73-37.25 48.77-36.70L48.77-36.70Q48.34-36.07 48.05-35.57Q47.75-35.06 47.68-34.28L47.68-34.28Q46.97-33.57 46.43-32.73Q45.88-31.89 45.31-31.09Q44.75-30.29 44.04-29.63Q43.34-28.96 42.36-28.57L42.36-28.57Q42.32-28.18 42.05-27.71L42.05-27.71L41.23-27.71Q41.11-27.40 40.84-27.25L40.84-27.25L40.29-26.93Q40.02-26.78 39.84-26.54Q39.67-26.31 39.67-25.88L39.67-25.88Q39.59-25.92 39.47-25.92L39.47-25.92Q39.08-25.92 38.55-25.53Q38.03-25.14 37.71-24.90L37.71-24.90Q37.05-24.43 36.37-24.04Q35.68-23.65 35.18-22.95L35.18-22.95Q33.61-22.29 32.21-21.41Q30.80-20.53 29.16-20.02L29.16-20.02Q28.54-19.36 27.70-18.98Q26.86-18.61 26.07-18.18L26.07-18.18L26.07-18.07Q26.07-17.75 26.31-17.46Q26.54-17.17 26.86-16.95Q27.17-16.74 27.54-16.66Q27.91-16.58 28.18-16.66L28.18-16.66Q28.96-15.96 29.98-15.53Q31.00-15.10 32.09-14.75Q33.18-14.39 34.24-14.00Q35.29-13.61 36.19-13.03L36.19-13.03L37.13-13.03Q38.03-12.25 39.26-11.86Q40.49-11.46 41.62-11.15L41.62-11.15Q42.09-10.72 42.81-10.51Q43.54-10.29 44.20-10.29L44.20-10.29L44.43-10.29Q44.59-10.29 44.71-10.33L44.71-10.33L44.71-10.25Q44.71-10.06 44.82-10Q44.94-9.94 45.08-9.92Q45.21-9.90 45.35-9.84Q45.49-9.79 45.57-9.67L45.57-9.67L45.96-9.67Q46.78-9.67 47.52-9.34Q48.26-9.00 49.08-9.00L49.08-9.00Q49.43-9.00 49.63-9.08L49.63-9.08Q49.86-9.00 49.98-8.77Q50.10-8.54 50.29-8.38L50.29-8.38Q50.57-8.42 50.80-8.44Q51.04-8.46 51.27-8.46L51.27-8.46Q52.13-8.46 52.87-8.26Q53.61-8.07 54.39-7.68L54.39-7.68Q55.64-8.22 56.86-8.57Q58.07-8.93 59.43-8.93L59.43-8.93L59.43-8.85Q59.43-8.38 59.69-7.97Q59.94-7.56 60.14-7.13ZM45.18-38.30L45.18-38.30Q45.18-38.77 45-39.04Q44.82-39.32 44.55-39.53Q44.28-39.75 43.98-39.94Q43.69-40.14 43.46-40.45L43.46-40.45Q42.44-40.76 41.46-41.15Q40.49-41.54 39.47-41.82L39.47-41.82Q38.96-41.93 38.46-42.03Q37.95-42.13 37.44-42.13L37.44-42.13L36.58-42.13Q36.35-42.17 36.09-42.23Q35.84-42.29 35.61-42.32L35.61-42.32Q35.06-42.40 34.53-42.44Q34.00-42.48 33.46-42.48L33.46-42.48Q32.44-42.48 31.43-42.40L31.43-42.40L29.39-42.25Q28.96-42.21 28.50-42.21Q28.03-42.21 27.64-42.13L27.64-42.13Q27.44-42.09 27.09-41.95Q26.74-41.82 26.35-41.68Q25.96-41.54 25.59-41.39Q25.21-41.23 24.94-41.15L24.94-41.15Q24.98-40.88 24.98-40.61L24.98-40.61L24.98-40.10Q24.98-39.51 24.94-38.93Q24.90-38.34 24.79-37.75L24.79-37.75Q24.75-37.52 24.67-37.29Q24.59-37.05 24.55-36.82L24.55-36.82Q24.47-36.46 24.47-36.04L24.47-36.04L24.47-35.29Q24.39-34.39 24.36-33.54Q24.32-32.68 24.24-31.78L24.24-31.78Q24.00-29.20 23.75-26.66Q23.50-24.12 23.42-21.54L23.42-21.54Q24.71-21.82 25.88-22.36Q27.05-22.91 28.18-23.55Q29.32-24.20 30.45-24.82Q31.58-25.45 32.83-25.88L32.83-25.88Q33.14-26.31 33.59-26.58Q34.04-26.86 34.36-27.29L34.36-27.29Q34.75-27.29 34.94-27.46Q35.14-27.64 35.45-27.71L35.45-27.71Q37.32-29.36 39.28-30.80Q41.23-32.25 43.03-33.89L43.03-33.89Q43.18-34.43 43.55-34.96Q43.93-35.49 44.28-36.04Q44.63-36.58 44.90-37.13Q45.18-37.68 45.18-38.30ZM76.93-11.58L76.93-11.58Q76.82-11.04 76.45-10.70Q76.07-10.37 75.57-10.18Q75.06-9.98 74.53-9.92Q74.00-9.86 73.57-9.86L73.57-9.86Q73.38-9.86 73.20-9.88Q73.03-9.90 72.83-9.90L72.83-9.90Q72.64-9.90 72.64-9.71Q72.64-9.51 72.44-9.43L72.44-9.43Q72.25-9.51 72.05-9.55Q71.86-9.59 71.66-9.59L71.66-9.59Q71.39-9.59 71.13-9.55Q70.88-9.51 70.64-9.51L70.64-9.51Q70.33-9.51 70.20-9.59Q70.06-9.67 69.96-9.77Q69.86-9.86 69.77-9.98Q69.67-10.10 69.47-10.18L69.47-10.18Q69.20-10.29 69.02-10.21Q68.85-10.14 68.50-10.45L68.50-10.45Q68.03-10.84 67.70-11.41Q67.36-11.97 67.05-12.60Q66.74-13.22 66.39-13.85Q66.04-14.47 65.57-14.94L65.57-14.94L65.25-14.94Q64.55-14.94 64.28-14.36L64.28-14.36Q64.08-14.47 63.89-14.65Q63.69-14.82 63.46-14.94L63.46-14.94Q62.56-14.67 61.58-14.47Q60.61-14.28 59.63-14.28L59.63-14.28L59.08-14.28Q58.85-14.28 58.57-14.36L58.57-14.36Q58.18-14.20 57.87-13.98Q57.56-13.77 57.17-13.77L57.17-13.77Q56.93-13.77 56.62-13.93L56.62-13.93Q56.39-13.93 56.41-13.73Q56.43-13.54 56.15-13.54L56.15-13.54L55.80-13.54Q55.25-13.54 54.73-13.50Q54.20-13.46 53.65-13.46L53.65-13.46Q52.91-13.46 52.13-13.65L52.13-13.65Q51.93-13.54 51.70-13.54L51.70-13.54Q51.54-13.46 51.46-13.28Q51.39-13.11 51.31-12.97Q51.23-12.83 51.09-12.73Q50.96-12.64 50.72-12.68L50.72-12.68Q50.64-12.21 50.33-11.93Q50.02-11.66 50.02-11.11L50.02-11.11Q49.59-10.88 49.32-10.53Q49.04-10.18 48.77-9.79Q48.50-9.39 48.20-9.04Q47.91-8.69 47.48-8.50L47.48-8.50Q47.29-8.26 47.36-7.75L47.36-7.75Q46.93-7.40 46.31-7.13Q45.68-6.86 45.14-6.86L45.14-6.86Q44.00-6.86 43.57-8.07L43.57-8.07Q43.57-8.46 43.63-8.91Q43.69-9.36 43.81-9.77Q43.93-10.18 44.16-10.51Q44.39-10.84 44.82-11.00L44.82-11.00Q44.82-11.35 44.59-11.48Q44.36-11.62 44.39-11.97L44.39-11.97Q45.45-12.48 46.23-13.30Q47.01-14.12 47.66-15.04Q48.30-15.96 48.96-16.89Q49.63-17.83 50.45-18.57L50.45-18.57L50.45-19.39Q51.62-20.64 51.97-22.21L51.97-22.21Q52.40-22.29 52.54-22.60Q52.68-22.91 52.68-23.34L52.68-23.34Q52.87-23.34 52.93-23.52Q52.99-23.69 53.26-23.61L53.26-23.61Q53.61-24.55 54.04-25.33Q54.47-26.11 54.90-26.91Q55.33-27.71 55.66-28.57Q56.00-29.43 56.15-30.49L56.15-30.49Q56.70-30.53 56.76-31.02Q56.82-31.50 56.89-31.89L56.89-31.89Q57.48-32.44 57.77-33.18Q58.07-33.93 58.30-34.73Q58.54-35.53 58.83-36.33Q59.12-37.13 59.67-37.75L59.67-37.75L59.67-37.87Q59.67-38.07 59.51-38.13Q59.36-38.18 59.36-38.38L59.36-38.38Q59.39-38.42 59.39-38.46L59.39-38.46Q59.86-38.65 60.10-39.10Q60.33-39.55 60.80-39.75L60.80-39.75Q61.62-39.08 62.25-38.95Q62.87-38.81 63.89-38.73L63.89-38.73Q64.39-38.18 64.45-37.42Q64.51-36.66 64.71-35.92L64.71-35.92Q65.02-34.67 65.39-33.48Q65.76-32.29 65.96-31.04L65.96-31.04Q66.07-30.29 66.39-29.63Q66.70-28.96 66.82-28.26L66.82-28.26Q66.89-27.71 66.82-27.03Q66.74-26.35 66.97-25.84L66.97-25.84L67.25-25.21Q67.44-24.79 67.58-24.32Q67.71-23.85 67.83-23.38L67.83-23.38Q68.14-22.21 68.40-20.86Q68.65-19.51 69.20-18.42L69.20-18.42Q69.39-18.03 69.80-17.87Q70.21-17.71 70.72-17.66Q71.23-17.60 71.72-17.62Q72.21-17.64 72.56-17.64L72.56-17.64L72.95-17.64Q73.18-17.64 73.42-17.56L73.42-17.56Q73.57-17.25 73.57-17.01L73.57-17.01Q73.57-16.54 73.26-16.27Q72.95-16.00 72.95-15.64L72.95-15.64Q72.95-15.45 73.11-15.21L73.11-15.21Q72.95-15.25 72.64-15.25L72.64-15.25Q71.74-15.25 70.88-14.94L70.88-14.94Q71.19-14.28 71.72-13.83Q72.25-13.38 72.83-12.99L72.83-12.99Q73.22-13.30 73.65-13.30L73.65-13.30Q74.12-13.30 74.53-13.09Q74.94-12.87 75.41-12.87L75.41-12.87Q75.76-12.87 75.92-12.99L75.92-12.99Q76.23-12.64 76.43-12.27Q76.62-11.89 76.93-11.58ZM64.71-17.83L64.71-17.83Q64.63-18.50 64.45-18.79Q64.28-19.08 64.16-19.51L64.16-19.51Q64.00-20.06 63.95-20.68Q63.89-21.31 63.77-21.89L63.77-21.89Q63.50-23.22 63.16-24.55Q62.83-25.88 62.32-27.13L62.32-27.13Q62.48-27.36 62.48-27.56L62.48-27.56L62.48-27.68Q62.13-28.07 61.97-28.63Q61.82-29.20 61.68-29.77Q61.54-30.33 61.33-30.82Q61.11-31.31 60.64-31.62L60.64-31.62Q60.53-31.39 60.53-31.07L60.53-31.07Q60.53-30.80 60.59-30.57Q60.64-30.33 60.64-30.06L60.64-30.06Q60.25-29.86 60.08-29.45Q59.90-29.04 59.51-28.81L59.51-28.81Q59.20-27.56 58.61-26.45Q58.03-25.33 57.38-24.24Q56.74-23.14 56.15-22.03Q55.57-20.92 55.21-19.71L55.21-19.71Q54.71-19.36 54.53-18.81Q54.36-18.26 54.36-17.71L54.36-17.71Q54.71-17.52 55.16-17.50Q55.61-17.48 56.04-17.48Q56.46-17.48 56.86-17.40Q57.25-17.32 57.56-17.01L57.56-17.01Q58.07-17.17 58.67-17.23Q59.28-17.29 59.67-17.56L59.67-17.56Q60.45-17.29 61.35-17.29L61.35-17.29Q61.82-17.29 62.27-17.36Q62.71-17.44 63.14-17.56L63.14-17.56Q63.50-17.48 63.69-17.30Q63.89-17.13 64.28-17.17L64.28-17.17Q64.47-17.32 64.51-17.50Q64.55-17.68 64.71-17.83ZM97.29-35.61L97.29-35.61Q97.29-35.25 96.99-35.02Q96.70-34.79 96.70-34.67L96.70-34.67Q96.70-34.43 96.78-34.34Q96.86-34.24 96.86-34.12L96.86-34.12L96.86-33.93Q96.46-33.54 96.27-33.09Q96.07-32.64 95.96-32.15Q95.84-31.66 95.74-31.15Q95.64-30.64 95.49-30.18L95.49-30.18Q95.29-29.71 94.98-29.38Q94.67-29.04 94.47-28.61L94.47-28.61Q94.16-27.91 94.00-27.17Q93.85-26.43 93.34-25.80L93.34-25.80L93.34-25.61Q93.30-25.33 93.50-25.14L93.50-25.14Q92.75-24.16 92.32-22.81Q91.89-21.46 91.62-20Q91.35-18.54 91.15-17.07Q90.96-15.61 90.68-14.43L90.68-14.43Q90.88-13.57 91.29-12.81Q91.70-12.05 92.09-11.23L92.09-11.23Q92.87-11.04 93.59-10.68Q94.32-10.33 94.63-9.55L94.63-9.55Q94.55-8.77 94.12-8.34Q93.69-7.91 93.07-7.44L93.07-7.44Q92.64-7.60 92.36-7.70Q92.09-7.79 91.54-7.71L91.54-7.71Q90.80-8.30 90.16-8.65Q89.51-9.00 89.00-9.86L89.00-9.86Q88.93-9.98 88.77-9.98L88.77-9.98L88.42-9.98Q88.22-10.45 87.95-10.98Q87.68-11.50 87.40-12.07Q87.13-12.64 86.93-13.20Q86.74-13.77 86.74-14.24L86.74-14.24Q86.74-16.23 87.11-18.20Q87.48-20.18 87.48-22.21L87.48-22.21L87.48-22.60Q86.70-22.40 85.94-22.05Q85.18-21.70 84.39-21.50L84.39-21.50Q84.12-21.43 84.08-21.23Q84.04-21.04 83.85-20.92L83.85-20.92Q83.46-20.88 83.11-20.86Q82.75-20.84 82.44-20.84L82.44-20.84Q81.78-20.84 81.05-20.90Q80.33-20.96 79.63-21.15Q78.93-21.35 78.32-21.70Q77.71-22.05 77.25-22.60L77.25-22.60Q77.17-22.56 77.05-22.52Q76.93-22.48 76.82-22.48L76.82-22.48Q76.70-22.48 76.58-22.52Q76.46-22.56 76.39-22.60L76.39-22.60Q76.07-23.03 75.88-23.54L75.88-23.54L75.49-24.55Q75.29-25.06 75.06-25.53Q74.82-26.00 74.43-26.39L74.43-26.39Q74.32-27.09 74.32-27.75L74.32-27.75Q74.32-28.46 74.41-29.12Q74.51-29.79 74.71-30.45L74.71-30.45Q74.55-30.92 74.49-31.43Q74.43-31.93 74.43-32.44L74.43-32.44Q74.43-33.03 74.55-33.65Q74.67-34.28 74.94-34.80Q75.21-35.33 75.70-35.68Q76.19-36.04 76.89-36.04L76.89-36.04Q77.68-36.04 78.34-35.63Q79.00-35.21 79.63-34.79L79.63-34.79Q79.71-34.32 79.75-33.87Q79.79-33.42 79.79-32.91L79.79-32.91Q79.79-31.97 79.69-31.02Q79.59-30.06 79.59-29.08L79.59-29.08Q79.59-28.07 79.84-27.19Q80.10-26.31 80.76-25.53L80.76-25.53L80.92-25.53Q81.23-25.57 81.46-25.41Q81.70-25.25 82.01-25.25L82.01-25.25Q82.29-25.25 82.44-25.47Q82.60-25.68 82.83-25.68L82.83-25.68Q83.07-25.68 83.18-25.61Q83.30-25.53 83.38-25.53L83.38-25.53Q83.81-25.53 84.36-25.84Q84.90-26.15 85.06-26.54L85.06-26.54Q85.21-26.43 85.45-26.43L85.45-26.43Q85.76-26.43 86.04-26.62Q86.31-26.82 86.74-26.82L86.74-26.82Q86.97-26.82 86.91-27.11Q86.86-27.40 87.05-27.48L87.05-27.48Q87.52-27.68 88.09-28.05Q88.65-28.42 89.00-28.50L89.00-28.50Q89.20-29.00 89.49-29.45Q89.79-29.90 90.10-30.29L90.10-30.29Q90.21-31.19 90.57-32.01Q90.92-32.83 91.31-33.65Q91.70-34.47 92.05-35.29Q92.40-36.11 92.52-37.01L92.52-37.01Q92.95-37.44 93.20-37.95Q93.46-38.46 93.65-38.96L93.65-38.96Q94.04-39.08 94.63-39.10Q95.21-39.12 95.64-39.12L95.64-39.12L96.31-39.12Q96.43-38.89 96.62-38.69L96.62-38.69L97.01-38.30Q96.66-37.75 96.66-37.21L96.66-37.21Q96.66-36.78 96.86-36.37Q97.05-35.96 97.29-35.61ZM150.80-22.52L150.80-22.52L150.80-22.25Q150.80-22.13 150.76-22.01L150.76-22.01Q150.33-21.19 149.71-20.76Q149.08-20.33 148.14-20.33L148.14-20.33Q147.52-20.33 147.23-20.45Q146.93-20.57 146.46-20.88L146.46-20.88Q145.76-20.80 144.86-20.74Q143.96-20.68 143.07-20.55Q142.17-20.41 141.37-20.18Q140.57-19.94 140.02-19.47L140.02-19.47Q139.67-16.78 139.65-14.10Q139.63-11.43 139.55-8.73L139.55-8.73Q139.86-7.91 139.98-6.91Q140.10-5.92 140.14-5.10L140.14-5.10Q140.41-4.63 140.57-4.14Q140.72-3.65 140.88-3.14Q141.04-2.64 141.25-2.17Q141.46-1.70 141.82-1.31L141.82-1.31Q142.13-1.31 142.38-1.25Q142.64-1.19 142.91-1.11L142.91-1.11L142.91-0.88Q142.91-0.29 143.26-0.02Q143.61 0.25 144.04 0.57L144.04 0.57Q144.16 1.00 144.16 1.39L144.16 1.39Q144.16 2.05 143.87 2.64Q143.57 3.22 142.91 3.46L142.91 3.46Q142.52 3.46 142.17 3.36Q141.82 3.26 141.43 3.26L141.43 3.26Q141.15 3.26 140.84 3.34L140.84 3.34Q140.64 3.26 140.51 3.13Q140.37 2.99 140.21 2.87Q140.06 2.75 139.88 2.68Q139.71 2.60 139.43 2.64L139.43 2.64Q139.24 2.09 138.81 1.62Q138.38 1.15 137.75 1.23L137.75 1.23Q137.79 1.07 137.79 0.76L137.79 0.76Q137.79 0.21 137.58-0.25Q137.36-0.72 136.93-1.00L136.93-1.00Q136.74-1.89 136.58-2.97Q136.43-4.04 135.92-4.82L135.92-4.82Q135.92-5.96 135.68-6.99Q135.45-8.03 135.25-9.12L135.25-9.12Q135.41-9.75 135.41-10.53L135.41-10.53Q135.41-11.07 135.37-11.60Q135.33-12.13 135.33-12.64L135.33-12.64Q135.33-13.18 135.41-13.71Q135.49-14.24 135.80-14.75L135.80-14.75Q135.57-15.14 135.49-15.55Q135.41-15.96 135.41-16.39L135.41-16.39Q135.41-17.05 135.49-17.68L135.49-17.68L135.64-18.93Q135.57-18.96 135.37-18.96L135.37-18.96Q134.98-18.96 134.71-18.81L134.71-18.81L134.12-18.54Q133.93-18.57 133.77-18.57L133.77-18.57L133.42-18.57Q132.83-18.57 132.27-18.40Q131.70-18.22 131.27-17.79L131.27-17.79Q129.94-17.79 128.61-17.54Q127.29-17.29 125.98-16.93Q124.67-16.58 123.38-16.17Q122.09-15.76 120.80-15.45L120.80-15.45Q120.49-13.93 120.33-12.38Q120.18-10.84 120.18-9.24L120.18-9.24L120.18-8.30Q120.18-7.79 120.25-7.32L120.25-7.32Q120.29-7.01 120.47-6.76Q120.64-6.50 120.64-6.19L120.64-6.19Q120.64-5.92 120.53-5.76L120.53-5.76Q120.80-5.29 121.35-4.94L121.35-4.94Q121.93-5.14 122.36-5.14L122.36-5.14Q123.07-5.14 123.69-4.80Q124.32-4.47 125.02-4.36L125.02-4.36Q124.86-3.81 124.55-3.28Q124.24-2.75 124.16-2.13L124.16-2.13Q124.00-2.05 123.87-2.05Q123.73-2.05 123.61-2.03Q123.50-2.01 123.44-1.89Q123.38-1.78 123.46-1.43L123.46-1.43Q122.91-1.15 122.36-1.05Q121.82-0.96 121.25-0.92Q120.68-0.88 120.12-0.88Q119.55-0.88 118.96-0.84L118.96-0.84Q118.96-1.07 118.87-1.21Q118.77-1.35 118.61-1.41Q118.46-1.46 118.28-1.54Q118.11-1.62 117.99-1.74L117.99-1.74Q117.68-2.01 117.50-2.46Q117.32-2.91 117.15-3.40Q116.97-3.89 116.78-4.36Q116.58-4.82 116.31-5.21L116.31-5.21Q116.23-6.07 116.19-6.89Q116.15-7.71 116.15-8.57L116.15-8.57Q116.15-10.18 116.27-11.72Q116.39-13.26 116.46-14.90L116.46-14.90Q116.11-15.25 115.66-15.21Q115.21-15.18 114.79-15.29L114.79-15.29Q114.32-15.88 114.00-16.60Q113.69-17.32 113.69-18.11L113.69-18.11Q113.69-18.50 113.81-18.93L113.81-18.93Q114.16-19.04 114.59-19.16Q115.02-19.28 115.06-19.79L115.06-19.79Q115.33-19.63 115.72-19.63L115.72-19.63Q116.11-19.63 116.50-19.75Q116.89-19.86 117.29-19.94L117.29-19.94Q117.44-20.57 117.54-21.17Q117.64-21.78 117.56-22.44L117.56-22.44Q118.11-23.26 118.28-24.24Q118.46-25.21 118.54-26.11L118.54-26.11L118.54-26.66Q118.54-26.93 118.57-27.21L118.57-27.21Q118.65-27.64 118.81-28.18Q118.96-28.73 119.08-29.20L119.08-29.20Q119.28-29.94 119.34-30.61Q119.39-31.27 119.39-31.97L119.39-31.97L119.39-32.13Q119.39-32.32 119.24-32.42Q119.08-32.52 119.08-32.71L119.08-32.71L119.12-32.79Q119.28-34.04 119.49-35.27Q119.71-36.50 120.10-37.71L120.10-37.71Q119.79-38.61 119.79-39.75L119.79-39.75Q119.79-41.23 120.25-42.60L120.25-42.60Q120.02-43.22 120.02-43.81L120.02-43.81Q120.02-44.28 120.08-44.75Q120.14-45.21 120.10-45.68L120.10-45.68Q120.49-45.88 120.74-46.23Q121.00-46.58 121.35-46.82L121.35-46.82Q122.52-46.86 123.32-46.04Q124.12-45.21 124.12-44.04L124.12-44.04Q124.12-43.14 123.61-42.32L123.61-42.32Q123.77-41.58 123.77-40.61L123.77-40.61Q123.77-39.16 123.57-37.71Q123.38-36.27 123.46-34.79L123.46-34.79Q123.22-34.24 123.24-33.46Q123.26-32.68 123.18-32.13L123.18-32.13Q123.11-31.58 122.95-31.02Q122.79-30.45 122.75-29.90L122.75-29.90Q122.71-29.00 122.70-28.11Q122.68-27.21 122.48-26.39L122.48-26.39Q122.40-26.07 122.27-25.86Q122.13-25.64 122.05-25.37L122.05-25.37Q121.89-24.55 121.95-23.71Q122.01-22.87 121.93-22.01L121.93-22.01Q121.89-21.74 121.80-21.46Q121.70-21.19 121.70-20.88L121.70-20.88Q121.70-20.72 121.78-20.49L121.78-20.49Q125.33-20.80 128.85-21.54Q132.36-22.29 135.92-22.83L135.92-22.83Q136.19-23.34 136.19-23.89L136.19-23.89Q136.19-24.20 136.07-24.51L136.07-24.51Q136.46-25.80 136.68-27.11Q136.89-28.42 137.05-29.71Q137.21-31.00 137.32-32.30Q137.44-33.61 137.64-34.90L137.64-34.90L137.87-36.23Q137.99-36.89 138.18-37.52L138.18-37.52Q138.26-37.75 138.36-37.99Q138.46-38.22 138.46-38.42L138.46-38.42Q138.46-38.61 138.24-38.69Q138.03-38.77 138.03-38.89L138.03-38.89Q138.03-38.96 138.09-38.98Q138.14-39.00 138.18-38.96L138.18-38.96Q138.38-39.32 138.42-39.71Q138.46-40.10 138.48-40.49Q138.50-40.88 138.57-41.25Q138.65-41.62 138.89-41.93L138.89-41.93Q138.85-42.21 138.73-42.44Q138.61-42.68 138.61-42.99L138.61-42.99Q138.57-43.03 138.61-43.07L138.61-43.07Q138.69-43.42 138.71-43.67Q138.73-43.93 138.73-44.28L138.73-44.28Q138.73-44.75 139.16-45.02L139.16-45.02Q138.96-45.68 138.89-46.46Q138.81-47.25 138.81-47.99L138.81-47.99Q138.81-49.00 139.30-49.69Q139.79-50.37 140.92-50.37L140.92-50.37Q141.50-50.37 142.03-50.14Q142.56-49.90 142.91-49.47L142.91-49.47Q143.11-48.57 143.11-47.79L143.11-47.79Q143.11-47.25 143.05-46.76Q142.99-46.27 142.99-45.72L142.99-45.72Q142.99-45.29 143.07-44.92Q143.14-44.55 143.22-44.16L143.22-44.16Q142.87-43.61 142.71-42.95Q142.56-42.29 142.50-41.58Q142.44-40.88 142.42-40.16Q142.40-39.43 142.36-38.85L142.36-38.85Q142.25-37.56 141.99-36.31Q141.74-35.06 141.43-33.81L141.43-33.81Q141.54-33.38 141.54-33.03L141.54-33.03Q141.54-32.32 141.35-31.64Q141.15-30.96 141.23-30.29L141.23-30.29Q140.96-29.59 140.88-28.87Q140.80-28.14 140.76-27.36L140.76-27.36L140.68-25.84Q140.64-25.10 140.41-24.39L140.41-24.39Q140.49-24.20 140.70-24.18Q140.92-24.16 140.84-23.85L140.84-23.85Q141.74-24.12 142.75-24.10Q143.77-24.08 144.67-24.08L144.67-24.08Q145.25-24.08 145.84-24.10Q146.43-24.12 147.01-24.24L147.01-24.24Q147.60-24.39 148.20-24.61Q148.81-24.82 149.39-24.82L149.39-24.82Q150.21-24.82 150.64-24.24L150.64-24.24Q150.72-23.81 150.76-23.38Q150.80-22.95 150.80-22.52ZM175.25-33.57L175.25-33.57L175.25-33.42Q174.98-33.34 174.98-33.03L174.98-33.03Q174.55-32.83 174.08-32.73Q173.61-32.64 173.18-32.44L173.18-32.44Q172.75-32.48 172.30-32.50Q171.86-32.52 171.43-32.52L171.43-32.52Q170.25-32.52 169.08-32.44Q167.91-32.36 166.74-32.44L166.74-32.44Q166.19-32.13 165.55-31.95Q164.90-31.78 164.32-31.78L164.32-31.78Q163.85-31.78 163.50-31.89L163.50-31.89Q162.56-31.43 161.45-31.11Q160.33-30.80 159.20-30.51Q158.07-30.21 157.03-29.84Q156.00-29.47 155.21-28.81L155.21-28.81Q155.14-28.26 155.10-27.73Q155.06-27.21 155.06-26.70L155.06-26.70Q155.06-26.15 155.12-25.68Q155.18-25.21 155.37-24.75L155.37-24.75Q155.57-24.67 155.82-24.63Q156.07-24.59 156.27-24.59L156.27-24.59Q156.46-24.59 156.66-24.65Q156.86-24.71 156.93-24.90L156.93-24.90Q157.52-24.98 158.11-24.96Q158.69-24.94 159.28-24.94L159.28-24.94Q159.86-24.94 160.43-24.98Q161.00-25.02 161.54-25.18L161.54-25.18Q162.17-25.33 162.77-25.37Q163.38-25.41 163.96-25.45Q164.55-25.49 165.18-25.59Q165.80-25.68 166.46-26.00L166.46-26.00Q166.97-25.80 167.50-25.80Q168.03-25.80 168.54-25.72L168.54-25.72Q168.81-25.53 168.98-25.29Q169.16-25.06 169.16-24.75L169.16-24.75Q169.16-24.20 168.77-23.65Q168.38-23.11 168.14-22.64L168.14-22.64L167.71-22.64Q166.78-22.64 165.90-22.38Q165.02-22.13 164.14-21.80Q163.26-21.46 162.38-21.21Q161.50-20.96 160.57-20.96L160.57-20.96Q160.41-20.96 160.39-20.78Q160.37-20.61 160.29-20.53L160.29-20.53Q160.10-20.57 159.71-20.57L159.71-20.57Q158.81-20.57 157.99-20.37Q157.17-20.18 156.31-20.18L156.31-20.18Q156.07-20.18 155.84-20.20Q155.61-20.21 155.37-20.25L155.37-20.25Q155.18-19.94 154.86-19.84Q154.55-19.75 154.28-19.51L154.28-19.51Q154.16-19.16 154.14-18.65Q154.12-18.14 154.10-17.62Q154.08-17.09 154.00-16.62Q153.93-16.15 153.69-15.88L153.69-15.88Q153.73-15.68 154.00-15.74Q154.28-15.80 154.28-15.49L154.28-15.49Q154.28-15.14 154.20-14.75Q154.12-14.36 154.12-13.96L154.12-13.96Q154.12-13.22 154.30-12.34Q154.47-11.46 154.84-10.72Q155.21-9.98 155.84-9.49Q156.46-9.00 157.40-9.00L157.40-9.00Q158.03-9.00 158.57-9.24Q159.12-9.47 159.47-10.02L159.47-10.02L159.67-10.06Q159.82-10.06 159.96-10.02Q160.10-9.98 160.25-9.98L160.25-9.98Q160.49-9.98 160.86-10.27Q161.23-10.57 161.68-10.96Q162.13-11.35 162.60-11.72Q163.07-12.09 163.50-12.25L163.50-12.25Q163.77-12.79 164.02-13.34Q164.28-13.89 164.79-14.20L164.79-14.20L164.79-15.33Q165.18-15.76 165.63-16.11Q166.07-16.46 166.31-17.01L166.31-17.01Q166.50-16.93 166.68-16.89Q166.86-16.86 167.05-16.86L167.05-16.86Q167.25-16.86 167.46-16.89Q167.68-16.93 167.87-17.01L167.87-17.01Q168.18-16.58 168.36-16.05Q168.54-15.53 168.81-15.06L168.81-15.06Q168.46-14.36 167.99-13.38Q167.52-12.40 166.97-11.43Q166.43-10.45 165.82-9.57Q165.21-8.69 164.63-8.22L164.63-8.22Q164.51-8.11 164.12-7.95L164.12-7.95Q163.69-7.64 163.34-7.34Q162.99-7.05 162.68-6.66L162.68-6.66Q161.54-6.31 160.51-5.72Q159.47-5.14 158.46-4.59L158.46-4.59Q157.99-4.71 157.44-4.71L157.44-4.71Q156.97-4.71 156.50-4.65Q156.04-4.59 155.49-4.59L155.49-4.59Q155.33-4.79 155.04-4.84Q154.75-4.90 154.82-5.25L154.82-5.25Q153.50-5.33 152.68-5.98Q151.86-6.62 151.29-7.56Q150.72-8.50 150.37-9.59Q150.02-10.68 149.63-11.70L149.63-11.70L149.63-11.82Q149.63-12.01 149.79-12.05Q149.94-12.09 149.94-12.29L149.94-12.29Q149.94-12.36 149.90-12.40L149.90-12.40Q149.79-12.83 149.71-13.14Q149.63-13.46 149.63-13.89L149.63-13.89Q149.63-14.51 149.71-15.12Q149.79-15.72 149.79-16.35L149.79-16.35Q149.79-16.97 149.63-17.44L149.63-17.44Q149.79-17.64 149.88-17.97Q149.98-18.30 150.02-18.65Q150.06-19.00 150.08-19.36Q150.10-19.71 150.18-19.98L150.18-19.98Q150.02-20.41 149.90-20.74Q149.79-21.07 149.79-21.54L149.79-21.54L149.79-21.82Q150.18-22.48 150.45-23.18Q150.72-23.89 151.04-24.63L151.04-24.63L151.04-24.75Q151.04-25.88 150.96-27.01Q150.88-28.14 150.88-29.28L150.88-29.28L150.88-30.02Q150.88-30.41 150.92-30.76L150.92-30.76Q151.23-30.92 151.39-31.19Q151.54-31.46 151.86-31.62L151.86-31.62L153.14-31.62L153.38-32.01Q153.50-32.21 153.54-32.44L153.54-32.44Q153.96-32.56 154.38-32.77Q154.79-32.99 155.14-33.22L155.14-33.22Q155.68-33.54 156.13-33.79Q156.58-34.04 157.03-34.22Q157.48-34.39 157.99-34.51Q158.50-34.63 159.16-34.71L159.16-34.71Q159.47-34.71 159.57-34.82Q159.67-34.94 159.86-35.10L159.86-35.10Q160.33-35.02 160.80-34.96Q161.27-34.90 161.74-34.90L161.74-34.90Q162.68-34.90 163.50-35.25L163.50-35.25Q164.67-35.25 165.82-35.29Q166.97-35.33 168.14-35.33L168.14-35.33Q169.16-35.33 170.18-35.25Q171.19-35.18 172.17-34.98L172.17-34.98Q172.52-35.10 172.95-35.10L172.95-35.10Q173.42-35.10 173.91-35Q174.39-34.90 174.86-34.98L174.86-34.98Q174.90-34.55 175.08-34.26Q175.25-33.96 175.25-33.57ZM223.34-15.53L223.34-15.53Q223.26-14.94 222.93-14.63Q222.60-14.32 222.17-14.04L222.17-14.04Q221.97-14.08 221.80-14.10Q221.62-14.12 221.43-14.12L221.43-14.12Q220.21-14.16 219.14-13.81Q218.07-13.46 216.93-13.30L216.93-13.30Q216.54-13.22 216.21-13.24Q215.88-13.26 215.53-13.18L215.53-13.18Q214.28-12.99 212.87-12.87Q211.46-12.75 210.06-12.58Q208.65-12.40 207.30-12.15Q205.96-11.89 204.79-11.43L204.79-11.43Q204.67-11.50 204.55-11.60Q204.43-11.70 204.28-11.70L204.28-11.70Q203.89-11.70 203.54-11.58Q203.18-11.46 202.83-11.50L202.83-11.50Q202.44-11.27 201.99-11.17Q201.54-11.07 201.09-11.02Q200.64-10.96 200.21-10.84Q199.79-10.72 199.39-10.41L199.39-10.41Q199.08-10.57 198.63-10.59Q198.18-10.61 198.03-10.88L198.03-10.88Q197.13-10.45 196.13-10.33Q195.14-10.21 194.12-10.25L194.12-10.25Q193.46-10.29 192.60-10.45Q191.74-10.61 190.88-10.90Q190.02-11.19 189.28-11.60Q188.54-12.01 188.14-12.60L188.14-12.60Q187.87-12.99 187.75-13.46Q187.64-13.93 187.21-14.16L187.21-14.16Q187.32-15.06 187.48-15.92Q187.64-16.78 187.79-17.68L187.79-17.68Q188.57-18.34 189.28-19.08Q189.98-19.82 190.61-20.64L190.61-20.64Q191.35-21.00 191.99-21.50Q192.64-22.01 193.28-22.54Q193.93-23.07 194.57-23.57Q195.21-24.08 195.96-24.47L195.96-24.47Q196.07-24.75 196.29-24.92Q196.50-25.10 196.74-25.27Q196.97-25.45 197.17-25.66Q197.36-25.88 197.44-26.19L197.44-26.19Q198.81-27.01 199.82-28.26Q200.84-29.51 201.15-31.07L201.15-31.07Q200.49-31.62 199.65-31.80Q198.81-31.97 197.91-32.05L197.91-32.05Q197.13-32.09 196.29-32.05Q195.45-32.01 194.59-32.09L194.59-32.09Q193.73-31.82 192.81-31.74Q191.89-31.66 191.00-31.60Q190.10-31.54 189.22-31.37Q188.34-31.19 187.52-30.72L187.52-30.72Q187.36-30.72 187.23-30.76Q187.09-30.80 186.93-30.80L186.93-30.80Q185.68-30.84 184.59-30.31Q183.50-29.79 182.44-29.28L182.44-29.28Q182.36-29.12 182.36-29.04L182.36-29.04Q182.36-28.81 182.46-28.59Q182.56-28.38 182.56-28.14L182.56-28.14Q182.52-28.11 182.52-28.07Q182.52-28.03 182.48-27.99L182.48-27.99Q182.44-27.79 182.38-27.64Q182.32-27.48 182.25-27.29L182.25-27.29Q181.82-26.04 181.78-24.82L181.78-24.82Q181.74-23.81 181.78-22.83Q181.82-21.86 181.78-20.84L181.78-20.84Q181.70-19.59 181.39-18.50L181.39-18.50Q181.58-17.56 181.74-16.52Q181.89-15.49 182.13-14.47Q182.36-13.46 182.70-12.50Q183.03-11.54 183.57-10.68L183.57-10.68Q183.54-10.61 183.61-10.57Q183.69-10.53 183.77-10.53L183.77-10.53L184.08-10.53Q184.28-10.53 184.24-10.37L184.24-10.37Q184.32-10.25 184.36-10.16Q184.39-10.06 184.51-9.98L184.51-9.98Q184.59-9.86 184.51-9.67L184.51-9.67Q184.47-8.89 184.12-8.22Q183.77-7.56 183.69-6.78L183.69-6.78Q183.22-6.66 182.83-6.66L182.83-6.66Q182.17-6.70 181.66-7.03Q181.15-7.36 180.72-7.83Q180.29-8.30 179.90-8.79Q179.51-9.28 179.04-9.63L179.04-9.63Q178.77-10.72 178.52-12.05Q178.26-13.38 177.68-14.32L177.68-14.32Q177.83-14.67 177.83-15.18L177.83-15.18Q177.87-15.96 177.70-16.72Q177.52-17.48 177.60-18.26L177.60-18.26Q177.60-18.69 177.70-19.12Q177.79-19.55 177.83-19.98L177.83-19.98Q177.87-20.64 177.70-21.27Q177.52-21.89 177.56-22.56L177.56-22.56Q177.60-22.87 177.70-23.16Q177.79-23.46 177.99-23.69L177.99-23.69Q177.79-24.16 177.87-24.59L177.87-24.59Q177.91-25.25 178.03-25.84Q178.14-26.43 178.18-27.01L178.18-27.01Q178.18-27.32 178.14-27.62Q178.11-27.91 178.03-28.18L178.03-28.18L177.68-28.30Q177.44-28.30 177.23-28.18Q177.01-28.07 176.86-27.91Q176.70-27.75 176.58-27.66Q176.46-27.56 176.35-27.56L176.35-27.56Q176.27-27.56 176.17-27.58Q176.07-27.60 176.00-27.60L176.00-27.60Q175.92-27.60 175.70-27.44Q175.49-27.29 175.20-27.11Q174.90-26.93 174.63-26.76Q174.36-26.58 174.20-26.54L174.20-26.54Q173.77-26.62 173.52-26.84Q173.26-27.05 173.05-27.27Q172.83-27.48 172.60-27.66Q172.36-27.83 172.01-27.79L172.01-27.79Q171.89-28.03 171.88-28.30Q171.86-28.57 171.89-28.85L171.89-28.85L171.89-29.47Q172.17-29.98 172.62-30.31Q173.07-30.64 173.57-30.88L173.57-30.88L174.59-31.35Q175.10-31.58 175.53-31.93L175.53-31.93L175.88-31.93Q176.58-31.89 177.11-32.21Q177.64-32.52 178.11-32.93Q178.57-33.34 179.06-33.77Q179.55-34.20 180.14-34.43L180.14-34.43Q180.57-34.24 181.04-34.10Q181.50-33.96 182.01-33.93L182.01-33.93Q182.52-33.93 183.07-34.08Q183.61-34.24 183.93-34.67L183.93-34.67Q184.12-34.59 184.26-34.57Q184.39-34.55 184.59-34.55L184.59-34.55Q185.18-34.51 185.76-34.73Q186.35-34.94 186.89-35.25L186.89-35.25Q187.68-35.21 188.44-35.35Q189.20-35.49 189.96-35.64Q190.72-35.80 191.48-35.94Q192.25-36.07 193.03-36.04L193.03-36.04Q194.32-36.00 195.57-36.27Q196.82-36.54 198.11-36.46L198.11-36.46Q199.00-36.43 199.88-36.33Q200.76-36.23 201.66-36.27L201.66-36.27Q202.17-36.04 202.58-35.86Q202.99-35.68 203.61-35.76L203.61-35.76Q204.86-34.71 205.88-33.30L205.88-33.30L205.88-32.64Q205.84-31.74 205.57-30.88Q205.29-30.02 204.92-29.18Q204.55-28.34 204.12-27.54Q203.69-26.74 203.30-25.96L203.30-25.96Q200.76-23.65 198.22-21.39Q195.68-19.12 192.99-17.01L192.99-17.01Q192.91-16.62 192.77-16.31Q192.64-16.00 192.60-15.64L192.60-15.64Q192.60-15.45 192.64-15.33L192.64-15.33Q192.91-15.25 193.13-15.04Q193.34-14.82 193.26-14.47L193.26-14.47L193.61-14.47Q193.81-14.47 193.81-14.32L193.81-14.32L194.43-14.28Q195.92-14.20 197.40-14.36Q198.89-14.51 200.39-14.71Q201.89-14.90 203.38-15.08Q204.86-15.25 206.35-15.29L206.35-15.29Q206.70-15.41 207.09-15.49Q207.48-15.57 207.79-15.80L207.79-15.80L207.91-15.80Q208.18-15.80 208.32-15.64Q208.46-15.49 208.73-15.45L208.73-15.45Q208.93-15.45 209.14-15.53Q209.36-15.61 209.59-15.64L209.59-15.64Q210.14-15.80 210.74-15.84Q211.35-15.88 211.93-15.96L211.93-15.96Q214.20-16.15 216.43-16.21Q218.65-16.27 220.88-16.78L220.88-16.78Q221.07-16.50 221.43-16.41Q221.78-16.31 222.17-16.21Q222.56-16.11 222.89-16.00Q223.22-15.88 223.34-15.53ZM237.95-34.39L237.95-34.39Q237.87-33.93 237.73-33.59Q237.60-33.26 237.68-32.71L237.68-32.71Q237.29-32.68 237.07-32.46Q236.86-32.25 236.72-31.97Q236.58-31.70 236.45-31.41Q236.31-31.11 236.11-30.88L236.11-30.88Q236.43-29.47 236.46-28.03Q236.50-26.58 236.66-25.18L236.66-25.18Q236.86-23.38 237.27-21.64Q237.68-19.90 237.68-18.11L237.68-18.11Q237.68-17.56 237.66-17.09Q237.64-16.62 237.64-16.11L237.64-16.11Q237.64-15.80 237.66-15.47Q237.68-15.14 237.68-14.82L237.68-14.82Q237.68-13.69 237.38-12.56Q237.09-11.43 236.93-10.29L236.93-10.29Q236.46-9.86 236.13-9.36Q235.80-8.85 235.45-8.42Q235.10-7.99 234.63-7.66Q234.16-7.32 233.46-7.21L233.46-7.21Q233.34-6.82 233.01-6.62Q232.68-6.43 232.44-6.07L232.44-6.07L232.36-6.07Q231.39-6.07 230.68-6.35Q229.98-6.62 229.38-6.97Q228.77-7.32 228.14-7.71Q227.52-8.11 226.70-8.34L226.70-8.34Q225.61-9.24 224.71-10.31Q223.81-11.39 222.68-12.25L222.68-12.25Q222.40-13.03 221.95-13.54Q221.50-14.04 221.07-14.71L221.07-14.71Q220.88-14.98 220.78-15.21Q220.68-15.45 220.53-15.76L220.53-15.76Q220.41-16.07 220.16-16.19Q219.90-16.31 219.71-16.46L219.71-16.46Q219.39-17.68 218.81-18.69Q218.22-19.71 217.44-20.64L217.44-20.64Q217.21-20.21 217.07-19.73Q216.93-19.24 216.82-18.75Q216.70-18.26 216.52-17.77Q216.35-17.29 216.07-16.89L216.07-16.89L216.07-16.78Q216.07-16.58 216.23-16.54Q216.39-16.50 216.39-16.31L216.39-16.31Q216.39-16.27 216.37-16.23Q216.35-16.19 216.35-16.15L216.35-16.15Q216.15-16.00 216.05-15.76Q215.96-15.53 215.64-15.49L215.64-15.49Q215.68-15.29 215.68-15.10L215.68-15.10L215.68-14.75Q215.68-13.61 215.43-12.48Q215.18-11.35 215.18-10.18L215.18-10.18L215.18-9.67Q215.18-9.39 215.21-9.16L215.21-9.16Q215.29-8.93 215.45-8.69Q215.61-8.46 215.61-8.26L215.61-8.26Q215.61-7.99 215.37-7.75L215.37-7.75Q215.64-7.56 216.00-7.32Q216.35-7.09 216.64-6.80Q216.93-6.50 217.13-6.17Q217.32-5.84 217.32-5.45L217.32-5.45Q217.32-4.79 216.89-4.51Q216.46-4.24 215.86-4.08Q215.25-3.93 214.61-3.79Q213.96-3.65 213.54-3.30L213.54-3.30L213.42-3.30Q212.95-3.30 212.71-3.57Q212.48-3.85 212.01-3.85L212.01-3.85Q211.27-5.06 211.00-6.56Q210.72-8.07 210.72-9.43L210.72-9.43Q210.72-11.11 211.02-12.79Q211.31-14.47 211.72-16.11Q212.13-17.75 212.62-19.38Q213.11-21.00 213.54-22.64L213.54-22.64L213.57-22.75Q213.57-22.95 213.48-23.03Q213.38-23.11 213.38-23.26L213.38-23.26Q213.38-23.34 213.42-23.34L213.42-23.34Q213.54-23.73 213.67-24.08Q213.81-24.43 213.89-24.86L213.89-24.86Q214.12-25.96 214.22-27.11Q214.32-28.26 214.34-29.39Q214.36-30.53 214.41-31.68Q214.47-32.83 214.67-33.96L214.67-33.96Q214.98-34.28 215.25-34.63Q215.53-34.98 215.96-35.25L215.96-35.25Q216.74-35.21 217.52-35.02Q218.30-34.82 219.00-34.39L219.00-34.39Q219.47-32.71 219.65-31.04Q219.82-29.36 220.25-27.68L220.25-27.68L220.25-27.56Q220.25-27.36 220.47-27.38Q220.68-27.40 220.80-27.25L220.80-27.25Q220.72-27.13 220.70-26.97Q220.68-26.82 220.68-26.66L220.68-26.66L220.68-26.00Q220.76-25.68 220.88-25.33Q221.00-24.98 221.39-24.90L221.39-24.90Q221.58-23.65 221.97-22.60Q222.36-21.54 222.87-20.57Q223.38-19.59 223.96-18.63Q224.55-17.68 225.18-16.62L225.18-16.62Q226.15-15.88 226.86-14.92Q227.56-13.96 228.28-13.09Q229.00-12.21 229.92-11.54Q230.84-10.88 232.32-10.72L232.32-10.72Q232.52-10.88 232.60-11.15L232.60-11.15L232.79-11.70Q232.91-11.97 233.05-12.19Q233.18-12.40 233.46-12.52L233.46-12.52Q233.54-13.61 233.63-14.75Q233.73-15.88 234.12-16.89L234.12-16.89Q233.93-17.25 233.93-17.75L233.93-17.75Q233.93-18.14 233.98-18.50Q234.04-18.85 234.04-19.20L234.04-19.20Q234.04-19.94 233.73-20.41L233.73-20.41Q233.73-20.68 233.77-20.98Q233.81-21.27 234.00-21.54L234.00-21.54Q233.69-22.32 233.52-23.18Q233.34-24.04 233.34-24.94L233.34-24.94Q233.34-25.45 233.46-26.00L233.46-26.00Q233.22-26.58 233.14-27.36L233.14-27.36L232.99-28.96Q232.91-29.79 232.75-30.49Q232.60-31.19 232.17-31.62L232.17-31.62Q232.40-31.97 232.40-32.44L232.40-32.44Q232.40-33.22 232.17-33.93Q231.93-34.63 231.93-35.41L231.93-35.41Q231.93-35.96 232.17-36.50L232.17-36.50Q233.03-36.46 233.87-36.33Q234.71-36.19 235.53-36.19L235.53-36.19Q235.76-35.88 236.07-35.68Q236.39-35.49 236.74-35.31Q237.09-35.14 237.42-34.94Q237.75-34.75 237.95-34.39ZM270.92-11.58L270.92-11.58Q270.80-11.04 270.43-10.70Q270.06-10.37 269.55-10.18Q269.04-9.98 268.52-9.92Q267.99-9.86 267.56-9.86L267.56-9.86Q267.36-9.86 267.19-9.88Q267.01-9.90 266.82-9.90L266.82-9.90Q266.62-9.90 266.62-9.71Q266.62-9.51 266.43-9.43L266.43-9.43Q266.23-9.51 266.04-9.55Q265.84-9.59 265.64-9.59L265.64-9.59Q265.37-9.59 265.12-9.55Q264.86-9.51 264.63-9.51L264.63-9.51Q264.32-9.51 264.18-9.59Q264.04-9.67 263.95-9.77Q263.85-9.86 263.75-9.98Q263.65-10.10 263.46-10.18L263.46-10.18Q263.18-10.29 263.01-10.21Q262.83-10.14 262.48-10.45L262.48-10.45Q262.01-10.84 261.68-11.41Q261.35-11.97 261.04-12.60Q260.72-13.22 260.37-13.85Q260.02-14.47 259.55-14.94L259.55-14.94L259.24-14.94Q258.54-14.94 258.26-14.36L258.26-14.36Q258.07-14.47 257.87-14.65Q257.68-14.82 257.44-14.94L257.44-14.94Q256.54-14.67 255.57-14.47Q254.59-14.28 253.61-14.28L253.61-14.28L253.07-14.28Q252.83-14.28 252.56-14.36L252.56-14.36Q252.17-14.20 251.86-13.98Q251.54-13.77 251.15-13.77L251.15-13.77Q250.92-13.77 250.61-13.93L250.61-13.93Q250.37-13.93 250.39-13.73Q250.41-13.54 250.14-13.54L250.14-13.54L249.79-13.54Q249.24-13.54 248.71-13.50Q248.18-13.46 247.64-13.46L247.64-13.46Q246.89-13.46 246.11-13.65L246.11-13.65Q245.92-13.54 245.68-13.54L245.68-13.54Q245.53-13.46 245.45-13.28Q245.37-13.11 245.29-12.97Q245.21-12.83 245.08-12.73Q244.94-12.64 244.71-12.68L244.71-12.68Q244.63-12.21 244.32-11.93Q244.00-11.66 244.00-11.11L244.00-11.11Q243.57-10.88 243.30-10.53Q243.03-10.18 242.75-9.79Q242.48-9.39 242.19-9.04Q241.89-8.69 241.46-8.50L241.46-8.50Q241.27-8.26 241.35-7.75L241.35-7.75Q240.92-7.40 240.29-7.13Q239.67-6.86 239.12-6.86L239.12-6.86Q237.99-6.86 237.56-8.07L237.56-8.07Q237.56-8.46 237.62-8.91Q237.68-9.36 237.79-9.77Q237.91-10.18 238.14-10.51Q238.38-10.84 238.81-11.00L238.81-11.00Q238.81-11.35 238.57-11.48Q238.34-11.62 238.38-11.97L238.38-11.97Q239.43-12.48 240.21-13.30Q241.00-14.12 241.64-15.04Q242.29-15.96 242.95-16.89Q243.61-17.83 244.43-18.57L244.43-18.57L244.43-19.39Q245.61-20.64 245.96-22.21L245.96-22.21Q246.39-22.29 246.52-22.60Q246.66-22.91 246.66-23.34L246.66-23.34Q246.86-23.34 246.91-23.52Q246.97-23.69 247.25-23.61L247.25-23.61Q247.60-24.55 248.03-25.33Q248.46-26.11 248.89-26.91Q249.32-27.71 249.65-28.57Q249.98-29.43 250.14-30.49L250.14-30.49Q250.68-30.53 250.74-31.02Q250.80-31.50 250.88-31.89L250.88-31.89Q251.46-32.44 251.76-33.18Q252.05-33.93 252.29-34.73Q252.52-35.53 252.81-36.33Q253.11-37.13 253.65-37.75L253.65-37.75L253.65-37.87Q253.65-38.07 253.50-38.13Q253.34-38.18 253.34-38.38L253.34-38.38Q253.38-38.42 253.38-38.46L253.38-38.46Q253.85-38.65 254.08-39.10Q254.32-39.55 254.79-39.75L254.79-39.75Q255.61-39.08 256.23-38.95Q256.86-38.81 257.87-38.73L257.87-38.73Q258.38-38.18 258.44-37.42Q258.50-36.66 258.69-35.92L258.69-35.92Q259.00-34.67 259.38-33.48Q259.75-32.29 259.94-31.04L259.94-31.04Q260.06-30.29 260.37-29.63Q260.68-28.96 260.80-28.26L260.80-28.26Q260.88-27.71 260.80-27.03Q260.72-26.35 260.96-25.84L260.96-25.84L261.23-25.21Q261.43-24.79 261.56-24.32Q261.70-23.85 261.82-23.38L261.82-23.38Q262.13-22.21 262.38-20.86Q262.64-19.51 263.18-18.42L263.18-18.42Q263.38-18.03 263.79-17.87Q264.20-17.71 264.71-17.66Q265.21-17.60 265.70-17.62Q266.19-17.64 266.54-17.64L266.54-17.64L266.93-17.64Q267.17-17.64 267.40-17.56L267.40-17.56Q267.56-17.25 267.56-17.01L267.56-17.01Q267.56-16.54 267.25-16.27Q266.93-16.00 266.93-15.64L266.93-15.64Q266.93-15.45 267.09-15.21L267.09-15.21Q266.93-15.25 266.62-15.25L266.62-15.25Q265.72-15.25 264.86-14.94L264.86-14.94Q265.18-14.28 265.70-13.83Q266.23-13.38 266.82-12.99L266.82-12.99Q267.21-13.30 267.64-13.30L267.64-13.30Q268.11-13.30 268.52-13.09Q268.93-12.87 269.39-12.87L269.39-12.87Q269.75-12.87 269.90-12.99L269.90-12.99Q270.21-12.64 270.41-12.27Q270.61-11.89 270.92-11.58ZM258.69-17.83L258.69-17.83Q258.61-18.50 258.44-18.79Q258.26-19.08 258.14-19.51L258.14-19.51Q257.99-20.06 257.93-20.68Q257.87-21.31 257.75-21.89L257.75-21.89Q257.48-23.22 257.15-24.55Q256.82-25.88 256.31-27.13L256.31-27.13Q256.46-27.36 256.46-27.56L256.46-27.56L256.46-27.68Q256.11-28.07 255.96-28.63Q255.80-29.20 255.66-29.77Q255.53-30.33 255.31-30.82Q255.10-31.31 254.63-31.62L254.63-31.62Q254.51-31.39 254.51-31.07L254.51-31.07Q254.51-30.80 254.57-30.57Q254.63-30.33 254.63-30.06L254.63-30.06Q254.24-29.86 254.06-29.45Q253.89-29.04 253.50-28.81L253.50-28.81Q253.18-27.56 252.60-26.45Q252.01-25.33 251.37-24.24Q250.72-23.14 250.14-22.03Q249.55-20.92 249.20-19.71L249.20-19.71Q248.69-19.36 248.52-18.81Q248.34-18.26 248.34-17.71L248.34-17.71Q248.69-17.52 249.14-17.50Q249.59-17.48 250.02-17.48Q250.45-17.48 250.84-17.40Q251.23-17.32 251.54-17.01L251.54-17.01Q252.05-17.17 252.66-17.23Q253.26-17.29 253.65-17.56L253.65-17.56Q254.43-17.29 255.33-17.29L255.33-17.29Q255.80-17.29 256.25-17.36Q256.70-17.44 257.13-17.56L257.13-17.56Q257.48-17.48 257.68-17.30Q257.87-17.13 258.26-17.17L258.26-17.17Q258.46-17.32 258.50-17.50Q258.54-17.68 258.69-17.83ZM296.31-34.39L296.31-34.39Q296.23-33.93 296.09-33.59Q295.96-33.26 296.04-32.71L296.04-32.71Q295.64-32.68 295.43-32.46Q295.21-32.25 295.08-31.97Q294.94-31.70 294.80-31.41Q294.67-31.11 294.47-30.88L294.47-30.88Q294.79-29.47 294.82-28.03Q294.86-26.58 295.02-25.18L295.02-25.18Q295.21-23.38 295.63-21.64Q296.04-19.90 296.04-18.11L296.04-18.11Q296.04-17.56 296.02-17.09Q296.00-16.62 296.00-16.11L296.00-16.11Q296.00-15.80 296.02-15.47Q296.04-15.14 296.04-14.82L296.04-14.82Q296.04-13.69 295.74-12.56Q295.45-11.43 295.29-10.29L295.29-10.29Q294.82-9.86 294.49-9.36Q294.16-8.85 293.81-8.42Q293.46-7.99 292.99-7.66Q292.52-7.32 291.82-7.21L291.82-7.21Q291.70-6.82 291.37-6.62Q291.04-6.43 290.80-6.07L290.80-6.07L290.72-6.07Q289.75-6.07 289.04-6.35Q288.34-6.62 287.73-6.97Q287.13-7.32 286.50-7.71Q285.88-8.11 285.06-8.34L285.06-8.34Q283.96-9.24 283.07-10.31Q282.17-11.39 281.04-12.25L281.04-12.25Q280.76-13.03 280.31-13.54Q279.86-14.04 279.43-14.71L279.43-14.71Q279.24-14.98 279.14-15.21Q279.04-15.45 278.89-15.76L278.89-15.76Q278.77-16.07 278.52-16.19Q278.26-16.31 278.07-16.46L278.07-16.46Q277.75-17.68 277.17-18.69Q276.58-19.71 275.80-20.64L275.80-20.64Q275.57-20.21 275.43-19.73Q275.29-19.24 275.18-18.75Q275.06-18.26 274.88-17.77Q274.71-17.29 274.43-16.89L274.43-16.89L274.43-16.78Q274.43-16.58 274.59-16.54Q274.75-16.50 274.75-16.31L274.75-16.31Q274.75-16.27 274.73-16.23Q274.71-16.19 274.71-16.15L274.71-16.15Q274.51-16.00 274.41-15.76Q274.32-15.53 274.00-15.49L274.00-15.49Q274.04-15.29 274.04-15.10L274.04-15.10L274.04-14.75Q274.04-13.61 273.79-12.48Q273.54-11.35 273.54-10.18L273.54-10.18L273.54-9.67Q273.54-9.39 273.57-9.16L273.57-9.16Q273.65-8.93 273.81-8.69Q273.96-8.46 273.96-8.26L273.96-8.26Q273.96-7.99 273.73-7.75L273.73-7.75Q274.00-7.56 274.36-7.32Q274.71-7.09 275-6.80Q275.29-6.50 275.49-6.17Q275.68-5.84 275.68-5.45L275.68-5.45Q275.68-4.79 275.25-4.51Q274.82-4.24 274.22-4.08Q273.61-3.93 272.97-3.79Q272.32-3.65 271.89-3.30L271.89-3.30L271.78-3.30Q271.31-3.30 271.07-3.57Q270.84-3.85 270.37-3.85L270.37-3.85Q269.63-5.06 269.36-6.56Q269.08-8.07 269.08-9.43L269.08-9.43Q269.08-11.11 269.38-12.79Q269.67-14.47 270.08-16.11Q270.49-17.75 270.98-19.38Q271.46-21.00 271.89-22.64L271.89-22.64L271.93-22.75Q271.93-22.95 271.84-23.03Q271.74-23.11 271.74-23.26L271.74-23.26Q271.74-23.34 271.78-23.34L271.78-23.34Q271.89-23.73 272.03-24.08Q272.17-24.43 272.25-24.86L272.25-24.86Q272.48-25.96 272.58-27.11Q272.68-28.26 272.70-29.39Q272.71-30.53 272.77-31.68Q272.83-32.83 273.03-33.96L273.03-33.96Q273.34-34.28 273.61-34.63Q273.89-34.98 274.32-35.25L274.32-35.25Q275.10-35.21 275.88-35.02Q276.66-34.82 277.36-34.39L277.36-34.39Q277.83-32.71 278.01-31.04Q278.18-29.36 278.61-27.68L278.61-27.68L278.61-27.56Q278.61-27.36 278.83-27.38Q279.04-27.40 279.16-27.25L279.16-27.25Q279.08-27.13 279.06-26.97Q279.04-26.82 279.04-26.66L279.04-26.66L279.04-26.00Q279.12-25.68 279.24-25.33Q279.36-24.98 279.75-24.90L279.75-24.90Q279.94-23.65 280.33-22.60Q280.72-21.54 281.23-20.57Q281.74-19.59 282.32-18.63Q282.91-17.68 283.54-16.62L283.54-16.62Q284.51-15.88 285.21-14.92Q285.92-13.96 286.64-13.09Q287.36-12.21 288.28-11.54Q289.20-10.88 290.68-10.72L290.68-10.72Q290.88-10.88 290.96-11.15L290.96-11.15L291.15-11.70Q291.27-11.97 291.41-12.19Q291.54-12.40 291.82-12.52L291.82-12.52Q291.89-13.61 291.99-14.75Q292.09-15.88 292.48-16.89L292.48-16.89Q292.29-17.25 292.29-17.75L292.29-17.75Q292.29-18.14 292.34-18.50Q292.40-18.85 292.40-19.20L292.40-19.20Q292.40-19.94 292.09-20.41L292.09-20.41Q292.09-20.68 292.13-20.98Q292.17-21.27 292.36-21.54L292.36-21.54Q292.05-22.32 291.88-23.18Q291.70-24.04 291.70-24.94L291.70-24.94Q291.70-25.45 291.82-26.00L291.82-26.00Q291.58-26.58 291.50-27.36L291.50-27.36L291.35-28.96Q291.27-29.79 291.11-30.49Q290.96-31.19 290.53-31.62L290.53-31.62Q290.76-31.97 290.76-32.44L290.76-32.44Q290.76-33.22 290.53-33.93Q290.29-34.63 290.29-35.41L290.29-35.41Q290.29-35.96 290.53-36.50L290.53-36.50Q291.39-36.46 292.23-36.33Q293.07-36.19 293.89-36.19L293.89-36.19Q294.12-35.88 294.43-35.68Q294.75-35.49 295.10-35.31Q295.45-35.14 295.78-34.94Q296.11-34.75 296.31-34.39ZM326.46-27.99L326.46-27.99Q326.46-27.60 326.19-27.48Q325.92-27.36 325.92-27.01L325.92-27.01Q325.92-26.89 326.00-26.82Q326.07-26.74 326.07-26.58L326.07-26.58L326.07-26.43Q325.61-24.16 324.73-22.48Q323.85-20.80 322.68-19.39Q321.50-17.99 320.04-16.74Q318.57-15.49 316.89-14.12L316.89-14.12Q316.43-13.73 315.94-13.34Q315.45-12.95 315.02-12.52L315.02-12.52L314.16-11.70Q314.12-11.66 313.73-11.52Q313.34-11.39 313.26-11.35L313.26-11.35Q312.71-11.11 312.11-10.80Q311.50-10.49 311.07-10.02L311.07-10.02Q310.29-10.02 309.75-9.79Q309.20-9.55 308.54-9.16L308.54-9.16Q308.34-9.16 308.20-9.24Q308.07-9.32 307.91-9.39Q307.75-9.47 307.58-9.49Q307.40-9.51 307.13-9.43L307.13-9.43Q306.66-10.21 306.11-10.76Q305.57-11.31 304.63-11.43L304.63-11.43Q304.51-12.09 304.08-12.46Q303.65-12.83 303.22-13.26L303.22-13.26Q303.14-13.50 303.11-13.81Q303.07-14.12 302.95-14.39Q302.83-14.67 302.64-14.86Q302.44-15.06 302.09-15.06L302.09-15.06Q302.05-15.29 302.29-15.29Q302.52-15.29 302.52-15.49L302.52-15.49Q302.52-15.72 302.44-15.96Q302.36-16.19 302.36-16.46L302.36-16.46Q302.36-16.66 302.40-16.82Q302.44-16.97 302.52-17.17L302.52-17.17Q302.40-18.22 302.40-19.32L302.40-19.32Q302.40-21.43 302.70-23.48Q302.99-25.53 302.99-27.64L302.99-27.64Q302.99-28.57 302.89-29.51Q302.79-30.45 302.52-31.35L302.52-31.35Q301.62-31.15 300.72-30.90Q299.82-30.64 299.04-30.21L299.04-30.21Q298.61-30.49 298.13-30.55Q297.64-30.61 297.17-30.76L297.17-30.76Q296.89-31.31 296.89-31.89L296.89-31.89Q296.89-32.44 297.09-32.95L297.09-32.95L297.48-33.96Q298.42-34.16 299.34-34.55Q300.25-34.94 301.19-35.25L301.19-35.25Q301.50-35.33 301.99-35.45Q302.48-35.57 302.68-35.64L302.68-35.64Q302.95-35.76 303.05-36.09Q303.14-36.43 303.34-36.66L303.34-36.66L304.00-36.66Q304.24-36.66 304.51-36.64Q304.79-36.62 305.02-36.50L305.02-36.50Q306.43-36.86 307.83-36.95Q309.24-37.05 310.72-37.25L310.72-37.25Q310.88-37.25 311.19-37.29L311.19-37.29L311.86-37.40Q312.21-37.48 312.50-37.54Q312.79-37.60 312.91-37.60L312.91-37.60Q313.03-37.60 313.03-37.48L313.03-37.48L313.69-37.48Q315.37-37.48 316.97-37.05L316.97-37.05L320.18-36.19Q320.84-35.64 321.50-35.14Q322.17-34.63 322.99-34.24L322.99-34.24Q323.18-33.61 323.59-33.24Q324.00-32.87 324.51-32.44L324.51-32.44Q324.71-31.93 325.04-31.37Q325.37-30.80 325.68-30.21Q326.00-29.63 326.23-29.06Q326.46-28.50 326.46-27.99ZM322.83-27.40L322.83-27.40Q322.40-28.30 322.01-29.28Q321.62-30.25 321.04-31.04L321.04-31.04Q320.33-31.23 319.61-31.52Q318.89-31.82 318.61-32.56L318.61-32.56Q318.54-32.52 318.34-32.52L318.34-32.52Q317.99-32.52 317.71-32.79Q317.44-33.07 317.09-33.14L317.09-33.14Q316.78-33.18 316.25-33.26Q315.72-33.34 315.14-33.38Q314.55-33.42 313.98-33.46Q313.42-33.50 313.11-33.50L313.11-33.50Q312.79-33.50 312.46-33.48Q312.13-33.46 311.78-33.42L311.78-33.42Q311.46-33.42 311.39-33.32Q311.31-33.22 311.07-33.14L311.07-33.14Q310.88-33.22 310.64-33.22L310.64-33.22L310.18-33.22Q309.36-33.22 308.55-32.97Q307.75-32.71 306.97-32.29L306.97-32.29L306.97-32.13Q306.97-31.82 307.25-31.78Q307.52-31.74 307.56-31.46L307.56-31.46Q307.36-31.46 307.25-31.45Q307.13-31.43 307.13-31.15L307.13-31.15Q307.13-30.76 307.23-30.29Q307.32-29.82 307.32-29.36L307.32-29.36Q307.32-29.00 307.25-28.54Q307.17-28.07 306.86-27.79L306.86-27.79Q307.25-27.44 307.25-26.86L307.25-26.86Q307.25-26.46 307.09-26.04Q306.93-25.61 306.70-25.29L306.70-25.29Q306.62-23.65 306.39-21.97Q306.15-20.29 306.15-18.65L306.15-18.65Q306.15-17.83 306.25-17.05Q306.35-16.27 306.58-15.49L306.58-15.49Q307.01-15.06 307.50-14.82Q307.99-14.59 308.54-14.36L308.54-14.36L308.54-14.24Q308.54-14.12 308.38-14.00Q308.22-13.89 308.22-13.69L308.22-13.69Q308.22-13.54 308.38-13.54L308.38-13.54Q310.02-14.00 311.46-14.67Q312.91-15.33 314.16-16.46L314.16-16.46Q314.28-16.58 314.39-16.58L314.39-16.58Q314.47-16.58 314.61-16.54Q314.75-16.50 314.86-16.46L314.86-16.46L314.82-16.62Q314.82-16.86 314.96-17.05Q315.10-17.25 315.29-17.40L315.29-17.40L315.68-17.75Q315.88-17.95 316.00-18.14L316.00-18.14Q316.31-18.22 316.45-18.46Q316.58-18.69 316.93-18.69L316.93-18.69Q317.01-19.12 317.36-19.34Q317.71-19.55 317.79-19.98L317.79-19.98Q318.57-20.41 319.18-21.04Q319.79-21.66 320.31-22.36Q320.84-23.07 321.31-23.83Q321.78-24.59 322.29-25.29L322.29-25.29L322.29-25.45Q322.29-26.07 322.50-26.46Q322.71-26.86 322.83-27.40ZM352.91-33.57L352.91-33.57L352.91-33.42Q352.64-33.34 352.64-33.03L352.64-33.03Q352.21-32.83 351.74-32.73Q351.27-32.64 350.84-32.44L350.84-32.44Q350.41-32.48 349.96-32.50Q349.51-32.52 349.08-32.52L349.08-32.52Q347.91-32.52 346.74-32.44Q345.57-32.36 344.39-32.44L344.39-32.44Q343.85-32.13 343.20-31.95Q342.56-31.78 341.97-31.78L341.97-31.78Q341.50-31.78 341.15-31.89L341.15-31.89Q340.21-31.43 339.10-31.11Q337.99-30.80 336.86-30.51Q335.72-30.21 334.69-29.84Q333.65-29.47 332.87-28.81L332.87-28.81Q332.79-28.26 332.75-27.73Q332.71-27.21 332.71-26.70L332.71-26.70Q332.71-26.15 332.77-25.68Q332.83-25.21 333.03-24.75L333.03-24.75Q333.22-24.67 333.48-24.63Q333.73-24.59 333.93-24.59L333.93-24.59Q334.12-24.59 334.32-24.65Q334.51-24.71 334.59-24.90L334.59-24.90Q335.18-24.98 335.76-24.96Q336.35-24.94 336.93-24.94L336.93-24.94Q337.52-24.94 338.09-24.98Q338.65-25.02 339.20-25.18L339.20-25.18Q339.82-25.33 340.43-25.37Q341.04-25.41 341.62-25.45Q342.21-25.49 342.83-25.59Q343.46-25.68 344.12-26.00L344.12-26.00Q344.63-25.80 345.16-25.80Q345.68-25.80 346.19-25.72L346.19-25.72Q346.46-25.53 346.64-25.29Q346.82-25.06 346.82-24.75L346.82-24.75Q346.82-24.20 346.43-23.65Q346.04-23.11 345.80-22.64L345.80-22.64L345.37-22.64Q344.43-22.64 343.55-22.38Q342.68-22.13 341.80-21.80Q340.92-21.46 340.04-21.21Q339.16-20.96 338.22-20.96L338.22-20.96Q338.07-20.96 338.05-20.78Q338.03-20.61 337.95-20.53L337.95-20.53Q337.75-20.57 337.36-20.57L337.36-20.57Q336.46-20.57 335.64-20.37Q334.82-20.18 333.96-20.18L333.96-20.18Q333.73-20.18 333.50-20.20Q333.26-20.21 333.03-20.25L333.03-20.25Q332.83-19.94 332.52-19.84Q332.21-19.75 331.93-19.51L331.93-19.51Q331.82-19.16 331.80-18.65Q331.78-18.14 331.76-17.62Q331.74-17.09 331.66-16.62Q331.58-16.15 331.35-15.88L331.35-15.88Q331.39-15.68 331.66-15.74Q331.93-15.80 331.93-15.49L331.93-15.49Q331.93-15.14 331.86-14.75Q331.78-14.36 331.78-13.96L331.78-13.96Q331.78-13.22 331.95-12.34Q332.13-11.46 332.50-10.72Q332.87-9.98 333.50-9.49Q334.12-9.00 335.06-9.00L335.06-9.00Q335.68-9.00 336.23-9.24Q336.78-9.47 337.13-10.02L337.13-10.02L337.32-10.06Q337.48-10.06 337.62-10.02Q337.75-9.98 337.91-9.98L337.91-9.98Q338.14-9.98 338.52-10.27Q338.89-10.57 339.34-10.96Q339.79-11.35 340.25-11.72Q340.72-12.09 341.15-12.25L341.15-12.25Q341.43-12.79 341.68-13.34Q341.93-13.89 342.44-14.20L342.44-14.20L342.44-15.33Q342.83-15.76 343.28-16.11Q343.73-16.46 343.96-17.01L343.96-17.01Q344.16-16.93 344.34-16.89Q344.51-16.86 344.71-16.86L344.71-16.86Q344.90-16.86 345.12-16.89Q345.33-16.93 345.53-17.01L345.53-17.01Q345.84-16.58 346.02-16.05Q346.19-15.53 346.46-15.06L346.46-15.06Q346.11-14.36 345.64-13.38Q345.18-12.40 344.63-11.43Q344.08-10.45 343.48-9.57Q342.87-8.69 342.29-8.22L342.29-8.22Q342.17-8.11 341.78-7.95L341.78-7.95Q341.35-7.64 341.00-7.34Q340.64-7.05 340.33-6.66L340.33-6.66Q339.20-6.31 338.16-5.72Q337.13-5.14 336.11-4.59L336.11-4.59Q335.64-4.71 335.10-4.71L335.10-4.71Q334.63-4.71 334.16-4.65Q333.69-4.59 333.14-4.59L333.14-4.59Q332.99-4.79 332.70-4.84Q332.40-4.90 332.48-5.25L332.48-5.25Q331.15-5.33 330.33-5.98Q329.51-6.62 328.95-7.56Q328.38-8.50 328.03-9.59Q327.68-10.68 327.29-11.70L327.29-11.70L327.29-11.82Q327.29-12.01 327.44-12.05Q327.60-12.09 327.60-12.29L327.60-12.29Q327.60-12.36 327.56-12.40L327.56-12.40Q327.44-12.83 327.36-13.14Q327.29-13.46 327.29-13.89L327.29-13.89Q327.29-14.51 327.36-15.12Q327.44-15.72 327.44-16.35L327.44-16.35Q327.44-16.97 327.29-17.44L327.29-17.44Q327.44-17.64 327.54-17.97Q327.64-18.30 327.68-18.65Q327.71-19.00 327.73-19.36Q327.75-19.71 327.83-19.98L327.83-19.98Q327.68-20.41 327.56-20.74Q327.44-21.07 327.44-21.54L327.44-21.54L327.44-21.82Q327.83-22.48 328.11-23.18Q328.38-23.89 328.69-24.63L328.69-24.63L328.69-24.75Q328.69-25.88 328.61-27.01Q328.54-28.14 328.54-29.28L328.54-29.28L328.54-30.02Q328.54-30.41 328.57-30.76L328.57-30.76Q328.89-30.92 329.04-31.19Q329.20-31.46 329.51-31.62L329.51-31.62L330.80-31.62L331.04-32.01Q331.15-32.21 331.19-32.44L331.19-32.44Q331.62-32.56 332.03-32.77Q332.44-32.99 332.79-33.22L332.79-33.22Q333.34-33.54 333.79-33.79Q334.24-34.04 334.69-34.22Q335.14-34.39 335.64-34.51Q336.15-34.63 336.82-34.71L336.82-34.71Q337.13-34.71 337.23-34.82Q337.32-34.94 337.52-35.10L337.52-35.10Q337.99-35.02 338.46-34.96Q338.93-34.90 339.39-34.90L339.39-34.90Q340.33-34.90 341.15-35.25L341.15-35.25Q342.32-35.25 343.48-35.29Q344.63-35.33 345.80-35.33L345.80-35.33Q346.82-35.33 347.83-35.25Q348.85-35.18 349.82-34.98L349.82-34.98Q350.18-35.10 350.61-35.10L350.61-35.10Q351.07-35.10 351.56-35Q352.05-34.90 352.52-34.98L352.52-34.98Q352.56-34.55 352.73-34.26Q352.91-33.96 352.91-33.57ZM395.57-18.46L395.57-18.46Q395.41-17.79 394.96-17.42Q394.51-17.05 393.93-16.86Q393.34-16.66 392.70-16.58Q392.05-16.50 391.54-16.46L391.54-16.46Q391.00-16.19 390.57-15.86Q390.14-15.53 389.67-15.21L389.67-15.21Q386.23-14.79 382.87-14.16Q379.51-13.54 376.07-13.11L376.07-13.11Q375.61-12.79 374.86-12.70Q374.12-12.60 373.32-12.54Q372.52-12.48 371.74-12.34Q370.96-12.21 370.37-11.86L370.37-11.86Q367.83-11.74 365.45-11.00L365.45-11.00Q365.02-11.11 364.57-11.19Q364.12-11.27 363.69-11.27L363.69-11.27Q363.38-11.27 362.99-11.21Q362.60-11.15 362.36-10.84L362.36-10.84Q361.43-11.58 360.14-11.39L360.14-11.39Q359.08-11.86 358.28-12.56Q357.48-13.26 357.05-14.36L357.05-14.36Q357.09-14.98 357.05-15.31Q357.01-15.64 356.50-16.04L356.50-16.04Q356.50-16.31 356.68-16.46Q356.86-16.62 356.89-16.89L356.89-16.89Q356.74-17.17 356.74-17.56L356.74-17.56Q356.74-18.22 356.97-18.91Q357.21-19.59 357.05-20.25L357.05-20.25Q357.60-21.15 358.30-21.95Q359.00-22.75 359.73-23.52Q360.45-24.28 361.17-25.06Q361.89-25.84 362.52-26.70L362.52-26.70Q363.26-26.93 363.87-27.42Q364.47-27.91 365.04-28.46Q365.61-29.00 366.19-29.51Q366.78-30.02 367.56-30.33L367.56-30.33Q367.64-30.57 367.81-30.74Q367.99-30.92 368.18-31.07Q368.38-31.23 368.55-31.43Q368.73-31.62 368.81-31.89L368.81-31.89L368.46-31.89Q366.70-31.89 364.94-31.68Q363.18-31.46 361.45-31.17Q359.71-30.88 357.99-30.57Q356.27-30.25 354.51-30.06L354.51-30.06Q353.85-29.71 353.07-29.43Q352.29-29.16 351.52-28.89Q350.76-28.61 350.04-28.26Q349.32-27.91 348.77-27.40L348.77-27.40Q348.65-27.36 348.42-27.36L348.42-27.36Q347.99-27.36 347.68-27.54Q347.36-27.71 346.97-27.79L346.97-27.79Q346.89-28.42 346.72-28.98Q346.54-29.55 346.54-30.18L346.54-30.18Q346.54-30.68 346.70-31.04L346.70-31.04Q347.25-31.04 347.46-31.39Q347.68-31.74 348.11-32.01L348.11-32.01Q348.22-31.89 348.34-31.89L348.34-31.89Q348.54-31.89 348.69-32.05Q348.85-32.21 349.08-32.36Q349.32-32.52 349.63-32.64Q349.94-32.75 350.45-32.71L350.45-32.71Q351.62-33.34 352.66-33.50Q353.69-33.65 354.94-33.85L354.94-33.85Q355.25-33.93 355.37-34.04Q355.49-34.16 355.64-34.39L355.64-34.39L356.46-34.36Q358.14-34.28 359.82-34.57Q361.50-34.86 363.16-35.21Q364.82-35.57 366.52-35.82Q368.22-36.07 369.94-35.92L369.94-35.92Q370.37-36.11 370.82-36.15Q371.27-36.19 371.74-36.19L371.74-36.19Q372.36-36.19 373.11-36.07Q373.85-35.96 374.49-35.64Q375.14-35.33 375.55-34.80Q375.96-34.28 375.96-33.50L375.96-33.50Q375.96-33.07 375.76-32.71Q375.57-32.36 375.29-32.05Q375.02-31.74 374.71-31.45Q374.39-31.15 374.12-30.88L374.12-30.88Q373.69-30.41 373.32-29.88Q372.95-29.36 372.44-28.93L372.44-28.93Q372.17-28.96 372.03-28.81Q371.89-28.65 371.62-28.65L371.62-28.65Q371.11-28.42 371.04-27.79L371.04-27.79Q369.98-27.36 369.00-26.78Q368.03-26.19 367.40-25.18L367.40-25.18Q366.58-24.67 365.86-24.02Q365.14-23.38 364.47-22.68Q363.81-21.97 363.16-21.25Q362.52-20.53 361.82-19.86L361.82-19.86Q361.74-19.28 361.54-18.77Q361.35-18.26 361.11-17.71L361.11-17.71Q361.11-17.29 361.39-16.97Q361.66-16.66 361.66-16.15L361.66-16.15Q362.64-15.96 363.59-15.86Q364.55-15.76 365.57-15.76L365.57-15.76Q366.54-15.76 367.52-15.90Q368.50-16.04 369.36-16.46L369.36-16.46Q369.94-16.31 370.57-16.31L370.57-16.31Q371.43-16.31 372.23-16.48Q373.03-16.66 373.85-16.62L373.85-16.62Q374.82-16.97 375.86-17.11Q376.89-17.25 377.91-17.34Q378.93-17.44 379.96-17.60Q381.00-17.75 381.97-18.18L381.97-18.18Q382.52-18.07 382.99-18.14Q383.46-18.22 384.00-18.22L384.00-18.22Q384.39-18.22 384.94-17.99L384.94-17.99Q385.57-18.30 386.25-18.54Q386.93-18.77 387.64-18.77L387.64-18.77Q387.91-18.77 388.18-18.73Q388.46-18.69 388.69-18.57L388.69-18.57Q388.77-18.61 389.08-18.73Q389.39-18.85 389.75-18.96Q390.10-19.08 390.41-19.18Q390.72-19.28 390.80-19.28L390.80-19.28Q391.11-19.28 391.09-19.10Q391.07-18.93 391.27-18.93L391.27-18.93Q391.93-18.93 392.56-19.18Q393.18-19.43 393.85-19.43L393.85-19.43Q394.12-19.43 394.36-19.39Q394.59-19.36 394.90-19.28L394.90-19.28Q395.06-19.04 395.18-18.79Q395.29-18.54 395.57-18.46Z"></path></g></g></svg>